<?xml version="1.0" encoding="UTF-8"?>
<svg id="Swatch_Info_Layer" data-name="Swatch Info Layer" xmlns="http://www.w3.org/2000/svg" viewBox="0 0 216.66 216.66">
  <defs>
    <style>
      .cls-1 {
        fill: #32a9ae;
      }
    </style>
  </defs>
  <path class="cls-1" d="M108.33,0C48.6,0,0,48.6,0,108.33s48.6,108.33,108.33,108.33,108.33-48.6,108.33-108.33S168.07,0,108.33,0ZM108.33,208.91c-55.46,0-100.58-45.12-100.58-100.58S52.87,7.76,108.33,7.76s100.57,45.12,100.57,100.57-45.12,100.58-100.57,100.58Z"/>
  <path class="cls-1" d="M156.2,80.07c-2.13,0-3.87-1.74-3.87-3.87v-14.81c0-5.7-4.64-10.33-10.33-10.33h-62.33c-5.7,0-10.33,4.64-10.33,10.33v14.81c0,2.13-1.74,3.87-3.87,3.87-5.7,0-10.33,4.64-10.33,10.33v64.87c0,5.7,4.64,10.33,10.33,10.33h90.73c5.7,0,10.33-4.64,10.33-10.33v-64.87c0-5.7-4.64-10.33-10.33-10.33ZM160.07,155.27c0,2.13-1.74,3.87-3.87,3.87h-90.73c-2.13,0-3.87-1.74-3.87-3.87v-64.87c0-2.13,1.74-3.87,3.87-3.87,5.7,0,10.33-4.64,10.33-10.33v-14.81c0-2.13,1.74-3.87,3.87-3.87h62.33c2.13,0,3.87,1.74,3.87,3.87v14.81c0,5.7,4.64,10.33,10.33,10.33,2.13,0,3.87,1.74,3.87,3.87v64.87Z"/>
  <path class="cls-1" d="M144.93,122.68l-20,9.99,14.92-16.63c1.19-1.33,1.08-3.37-.25-4.56-1.33-1.19-3.37-1.08-4.56.25l-14.92,16.64,7.76-20.95c.62-1.67-.23-3.53-1.91-4.15-1.67-.61-3.53.23-4.15,1.91l-7.76,20.97-.49-22.34c-.04-1.78-1.53-3.22-3.3-3.16-1.78.04-3.2,1.52-3.16,3.3l.49,22.35-8.67-20.59c-.69-1.65-2.59-2.42-4.23-1.72-1.64.69-2.42,2.59-1.72,4.23l8.68,20.6-15.63-15.96c-1.25-1.27-3.29-1.29-4.57-.05-1.27,1.25-1.29,3.3-.05,4.57l15.64,15.97-20.41-9.09c-1.63-.72-3.54,0-4.27,1.64s0,3.54,1.64,4.27l35.77,15.93c.43.19.87.28,1.31.28.33,0,.65-.05.96-.15.25-.06.5-.14.75-.26l35.04-17.49c1.6-.8,2.25-2.74,1.45-4.33-.8-1.6-2.73-2.25-4.33-1.45Z"/>
</svg>