<?xml version="1.0" encoding="UTF-8"?>
<svg id="Swatch_Info_Layer" data-name="Swatch Info Layer" xmlns="http://www.w3.org/2000/svg" viewBox="0 0 216.66 216.66">
  <defs>
    <style>
      .cls-1 {
        fill: #32a9ae;
      }
    </style>
  </defs>
  <path class="cls-1" d="M108.33,216.66C48.6,216.66,0,168.06,0,108.33S48.6,0,108.33,0s108.33,48.6,108.33,108.33-48.6,108.33-108.33,108.33ZM108.33,7.76C52.87,7.76,7.76,52.87,7.76,108.33s45.12,100.58,100.58,100.58,100.57-45.12,100.57-100.58S163.79,7.76,108.33,7.76Z"/>
  <g>
    <path class="cls-1" d="M138.72,178.11c-1.78,0-3.23-1.45-3.23-3.23V41.79c0-1.78,1.45-3.23,3.23-3.23s3.23,1.45,3.23,3.23v133.09c0,1.78-1.45,3.23-3.23,3.23Z"/>
    <path class="cls-1" d="M82.96,178.11c-1.78,0-3.23-1.45-3.23-3.23V41.79c0-1.78,1.45-3.23,3.23-3.23s3.23,1.45,3.23,3.23v133.09c0,1.78-1.45,3.23-3.23,3.23Z"/>
  </g>
  <rect class="cls-1" x="42.35" y="89.42" width="136.97" height="37.81" transform="translate(219.17 -2.51) rotate(90)"/>
</svg>